<svg xmlns="http://www.w3.org/2000/svg" xmlns:xlink="http://www.w3.org/1999/xlink" width="143" height="85" viewBox="0 0 143 85"><defs><path id="a" d="M46.763 23.35c0 12.897-10.4 23.351-23.229 23.351-12.83 0-23.23-10.454-23.23-23.35C.305 10.454 10.705 0 23.535 0s23.23 10.454 23.23 23.35z"/></defs><g fill="none" fill-rule="evenodd" transform="translate(1)"><g opacity=".2" transform="translate(62.786 34.676)"><path fill="#FFE600" fill-rule="nonzero" d="M30.692 14.104v20.358H3.769V14.104L17.307 1.077z"/><path fill="#2968C8" fill-rule="nonzero" d="M24.231 7.033V3.231h7v10.231"/><path fill="#F7BE17" fill-rule="nonzero" d="M17.5 3.757 2.147 18.308 0 16.519 16.429.987 17.5 0l1.071.987L35 16.519l-2.147 1.789z"/><rect width="4.846" height="6.462" x="9.692" y="22.077" fill="#FFF" fill-rule="nonzero" rx="1"/><rect width="6.462" height="12.385" x="19.923" y="22.077" fill="#FFF" fill-rule="nonzero" rx="1"/><path fill="#F5F5F5" d="M18.308 33.385H28v1.077h-9.692z"/><circle cx="17.5" cy="12.115" r="2.423" fill="#2968C8" fill-rule="nonzero"/></g><path fill="#D8D8D8" d="M101.327 23.079v-6.867a2.79 2.79 0 0 0-2.795-2.796H14.81a2.803 2.803 0 0 0-2.796 2.796v6.867h89.312z"/><path stroke="#979797" stroke-linecap="round" stroke-linejoin="round" stroke-width="2.4" d="M14.815 11.403h86.916a2.8 2.8 0 0 1 2.8 2.8V66.98a2.8 2.8 0 0 1-2.8 2.8H14.815a2.8 2.8 0 0 1-2.8-2.8V14.203a2.8 2.8 0 0 1 2.8-2.8"/><path fill="#FFF" d="M20.426 17.04c0 .89-.718 1.61-1.602 1.61s-1.602-.72-1.602-1.61.717-1.61 1.602-1.61c.884 0 1.602.72 1.602 1.61m6.408 0c0 .89-.717 1.61-1.602 1.61s-1.602-.72-1.602-1.61.717-1.61 1.602-1.61 1.602.72 1.602 1.61m6.408 0c0 .89-.717 1.61-1.602 1.61s-1.602-.72-1.602-1.61.717-1.61 1.602-1.61 1.602.72 1.602 1.61"/><path fill="#D8D8D8" d="M20.426 34.351h18.823v-2.818H20.426zm0 4.026h13.216V37.17H20.426z"/><path stroke="#979797" stroke-width="1.6" d="M110.94 51.26c0 8.672-6.994 15.702-15.62 15.702-8.627 0-15.62-7.03-15.62-15.701 0-8.672 6.993-15.702 15.62-15.702s15.62 7.03 15.62 15.702z"/><g transform="translate(71.786 27.91)"><mask id="b" fill="#fff"><use xlink:href="#a"/></mask><use xlink:href="#a" fill="#FFF"/><g mask="url(#b)"><g transform="translate(-9 6.766)"><path fill="#FFE600" fill-rule="nonzero" d="M30.692 14.104v20.358H3.769V14.104L17.307 1.077zm-6.461-7.071V3.231h7v10.231"/><path fill="#F7BE17" fill-rule="nonzero" d="M17.5 3.757 2.147 18.308 0 16.519 16.429.987 17.5 0l1.071.987L35 16.519l-2.147 1.789z"/><rect width="4.846" height="6.462" x="9.692" y="22.077" fill="#FFF" fill-rule="nonzero" rx="1"/><rect width="6.462" height="12.385" x="19.923" y="22.077" fill="#FFF" fill-rule="nonzero" rx="1"/><path fill="#F5F5F5" d="M18.308 33.385H28v1.077h-9.692z"/><circle cx="17.5" cy="12.115" r="2.423" fill="#F7BE17" fill-rule="nonzero"/></g></g></g><path stroke="#484848" stroke-linecap="round" stroke-width="1.2" d="M85.183 30.976a22.72 22.72 0 0 0-10.685 10.887m-2.153 9.398c-.066 5.613 1.957 11.062 5.664 15.207a21.8 21.8 0 0 0 7.049 5.228c6.179 2.881 13.03 2.621 18.799-.124a22.73 22.73 0 0 0 10.842-10.963 22.8 22.8 0 0 0 2.133-10.66 22.5 22.5 0 0 0-3.97-11.824 21.8 21.8 0 0 0-8.723-7.35 21.8 21.8 0 0 0-8.757-2.045 22.3 22.3 0 0 0-10.199 2.246"/><path stroke="#484848" stroke-linecap="square" stroke-width="1.2" d="m115.088 26.803-5.84 6.719"/><path fill="#FFE600" d="m124.84 24.166-2.664 3.064c-1.325 1.525-3.972 1.393-5.911-.293s-2.438-4.288-1.113-5.813l9.055-10.416 8.386-9.647c1.323-1.523 3.971-1.39 5.91.294 1.939 1.686 2.437 4.29 1.114 5.812"/><path stroke="#484848" stroke-linecap="round" stroke-width="1.2" d="M114.909 21.084c-1.325 1.525-1.027 3.953.664 5.423s4.137 1.428 5.462-.097l9.055-10.416 8.386-9.647"/><circle cx="94.536" cy="51.426" r="19.75" stroke="#FFF" stroke-width="4"/><path stroke="#979797" stroke-linecap="round" stroke-linejoin="round" stroke-width="1.2" d="M67.685 22.072h25.232"/><path stroke="#DFDFDF" stroke-linecap="round" stroke-linejoin="round" stroke-width="1.2" d="M0 83.267h84.515m3.996 0h23.597"/></g></svg>